/* XPM */
static char *__clusters[] = {
/* columns rows colors chars-per-pixel */
"32 32 187 2",
"   c #000000",
".  c #010101",
"X  c #020202",
"o  c #030303",
"O  c #040404",
"+  c #050505",
"@  c #060606",
"#  c #070707",
"$  c #080808",
"%  c #090909",
"&  c #0A0A0A",
"*  c #0B0B0B",
"=  c #0C0C0C",
"-  c #0D0D0D",
";  c #0F0F0F",
":  c #101010",
">  c #111111",
",  c #121212",
"<  c #131313",
"1  c #141414",
"2  c #161616",
"3  c #171717",
"4  c #181818",
"5  c #191919",
"6  c #1A1A1A",
"7  c #1B1B1B",
"8  c #1C1C1C",
"9  c #1D1D1D",
"0  c #1E1E1E",
"q  c #1F1F1F",
"w  c #202020",
"e  c #212121",
"r  c #222222",
"t  c #232323",
"y  c #242424",
"u  c #252525",
"i  c #262626",
"p  c #272727",
"a  c #282828",
"s  c #292929",
"d  c #2A2A2A",
"f  c #2B2B2B",
"g  c #2C2C2C",
"h  c #2D2D2D",
"j  c #2E2E2E",
"k  c #2F2F2F",
"l  c #303030",
"z  c #313131",
"x  c #323232",
"c  c #333333",
"v  c #343434",
"b  c #353535",
"n  c #363636",
"m  c #373737",
"M  c #383838",
"N  c #393939",
"B  c #3A3A3A",
"V  c #3B3B3B",
"C  c #3C3C3C",
"Z  c #3D3D3D",
"A  c #3E3E3E",
"S  c #3F3F3F",
"D  c #404040",
"F  c #414141",
"G  c #424242",
"H  c #434343",
"J  c #444444",
"K  c #454545",
"L  c #464646",
"P  c #474747",
"I  c #484848",
"U  c #494949",
"Y  c #4A4A4A",
"T  c #4B4B4B",
"R  c #4D4D4D",
"E  c #4E4E4E",
"W  c #4F4F4F",
"Q  c #505050",
"!  c #515151",
"~  c #525252",
"^  c #535353",
"/  c #545454",
"(  c #555555",
")  c #565656",
"_  c #575757",
"`  c #585858",
"'  c #595959",
"]  c #5A5A5A",
"[  c #5B5B5B",
"{  c #5C5C5C",
"}  c #5D5D5D",
"|  c #5E5E5E",
" . c #606060",
".. c #616161",
"X. c #626262",
"o. c #636363",
"O. c #646464",
"+. c #656565",
"@. c #666666",
"#. c #676767",
"$. c #686868",
"%. c #696969",
"&. c #6A6A6A",
"*. c #6B6B6B",
"=. c #6C6C6C",
"-. c #6D6D6D",
";. c #707070",
":. c #727272",
">. c #737373",
",. c #747474",
"<. c #757575",
"1. c #787878",
"2. c #797979",
"3. c #7A7A7A",
"4. c #7B7B7B",
"5. c #7E7E7E",
"6. c #808080",
"7. c #828282",
"8. c #838383",
"9. c #868686",
"0. c #888888",
"q. c #898989",
"w. c #8A8A8A",
"e. c #8B8B8B",
"r. c #8C8C8C",
"t. c #8D8D8D",
"y. c #8E8E8E",
"u. c #8F8F8F",
"i. c #919191",
"p. c #929292",
"a. c #939393",
"s. c #969696",
"d. c #989898",
"f. c #999999",
"g. c #9B9B9B",
"h. c #9C9C9C",
"j. c #9D9D9D",
"k. c #9F9F9F",
"l. c #A0A0A0",
"z. c #AAAAAA",
"x. c #AEAEAE",
"c. c #AFAFAF",
"v. c #B1B1B1",
"b. c #B3B3B3",
"n. c #B4B4B4",
"m. c #B8B8B8",
"M. c #B9B9B9",
"N. c #BABABA",
"B. c #BEBEBE",
"V. c #BFBFBF",
"C. c #C1C1C1",
"Z. c #C5C5C5",
"A. c #C8C8C8",
"S. c #CFCFCF",
"D. c #D0D0D0",
"F. c #D2D2D2",
"G. c #D3D3D3",
"H. c #D8D8D8",
"J. c #DBDBDB",
"K. c #DFDFDF",
"L. c #E1E1E1",
"P. c #E2E2E2",
"I. c #E3E3E3",
"U. c #E4E4E4",
"Y. c #E5E5E5",
"T. c #E6E6E6",
"R. c #E8E8E8",
"E. c #E9E9E9",
"W. c #EAEAEA",
"Q. c #ECECEC",
"!. c #EDEDED",
"~. c #EEEEEE",
"^. c #EFEFEF",
"/. c #F0F0F0",
"(. c #F1F1F1",
"). c #F2F2F2",
"_. c #F3F3F3",
"`. c #F4F4F4",
"'. c #F5F5F5",
"]. c #F8F8F8",
"[. c #F9F9F9",
"{. c #FAFAFA",
"}. c #FCFCFC",
"|. c #FDFDFD",
" X c #FEFEFE",
".X c #FFFFFF",
"XX c None",
/* pixels */
"XXXXXXXXXXXXXXXXXXXXXXXXXXXXh h h d XXXXXXXXXXXXXXXXXXXXXXXXXXXX",
"XXXXXXXXXXXXXXXXXXXXL W W [ [ [ ~ W L N z z XXXXXXXXXXXXXXXXXXXX",
"XXXXXXXXXXXXXXXXH { X.#.{ [ ~ W I L H Z N n h u XXXXXXXXXXXXXXXX",
"XXXXXXXXXXXXXX~ %.#.{ { / / W I L H N n z h d u t < XXXXXXXXXXXX",
"XXXXXXXXXXXX{ #.X.{ [ / W W L L Z N n z h d u t 0 0 3 XXXXXXXXXX",
"XXXXXXXXXX{ #.X.{ [ ~ I I L L Z N n z d n I Z 4 0 4 4 3 XXXXXXXX",
"XXXXXXXX[ { #.<.8.t.h.n.3.Z N N n z n v.R.).~.S.I 4 4 4 < XXXXXX",
"XXXXXXW X.8.{..X.X.X.X.Xi.N n n h N R..X).N.K..X.X=.= @     XXXX",
"XXXXZ X.{ %.d.h.F..X.X.Xi.z z h h J..X).I 3 t S..X{.L     @ XXXX",
"XXXX~ [ / ~ I I 3..X.X.Xt.h h d s..X.Xz.< @   <.{..XB.<     @ XX",
"XXZ / / ~ W I L :..X.X.Xt.d d Z J..X.X:.      z `..X.XH       XX",
"XXL ~ ~ I L H Z :..X.X.X0.u t X..X.X`.W       % R..X.Xd.      XX",
"XXH W I L H Z N =..X.X.X0.t 4 0..X.XR.N         J..X.XL.      @ ",
"XXL I L H N N z %..X.X.X9.% @ n..X.XT.d         A..X.X.X3       ",
"d L L Z N n z h %..X.X.X5.  % F..X.XT.0         N..X.X.Xn       ",
"d H Z N n z z d %..X.X.X5.  % L..X.XL.4         x..X.X.XL       ",
"d Z N z z h d u #..X.X.X5.  % T..X.XL.4         x..X.X.XI       ",
"u N z z d d u 0 { .X.X.X5.  % J..X.XT.0         v..X.X.XZ       ",
"XXz h d u u 0 < / .X.X.X5.  % Z..X.XT.t         C..X.X.Xu       ",
"XXd d u t t <   ~ .X.X.X5.  @ l..X.XR.h         F..X.X{.@     @ ",
"XXt u t t <     / .X.X.X5.    %..X.X~.H         L..X.XZ.      @ ",
"XXu t 0 4       ~ .X.X.X5.    N ~..X{.X.      4 )..X.X=.      XX",
"XXXX4 4 %       / .X.X.X8.    % N..X.X0.      W {..XR.u     % XX",
"XXXX4 =         %..X.X.Xt.      I .X.XS.<     h..X.X0.      XXXX",
"XXXXXX    d :.i.~..X.X.X).h.3.Z   8..X.Xh.0 %.)..XS.=       XXXX",
"XXXXXX    / ).{.`.`.`.).`.{.{.9.    5.)..X.X.X{.C.%       XXXXXX",
"XXXXXXXX  < I I I I W I I I W d       n 5.i.0.~         XXXXXXXX",
"XXXXXXXXXX@                                           XXXXXXXXXX",
"XXXXXXXXXXXX                                      @ XXXXXXXXXXXX",
"XXXXXXXXXXXXXX  @                                 XXXXXXXXXXXXXX",
"XXXXXXXXXXXXXXXXXX@ @                       % XXXXXXXXXXXXXXXXXX",
"XXXXXXXXXXXXXXXXXXXXXXXX@ @           @ % XXXXXXXXXXXXXXXXXXXXXX"
};
