/* XPM */
static char *chainlink[] = {
/* columns rows colors chars-per-pixel */
"32 32 65 1",
"  c #57636B",
". c #58646C",
"X c #5D6A75",
"o c #5E788C",
"O c #6E7E8B",
"+ c #707F8B",
"@ c #677F92",
"# c #67879F",
"$ c #708A9F",
"% c #6387A2",
"& c #668AA5",
"* c #6E8BA1",
"= c #768DA1",
"- c #7A8FA0",
"; c #6690AF",
": c #6A91AD",
"> c #7192AE",
", c #6691B1",
"< c #6A94B4",
"1 c #7495B0",
"2 c #7897B2",
"3 c #7F9BB4",
"4 c #759DBD",
"5 c #7C9EBA",
"6 c #7BA0BF",
"7 c #6C9EC4",
"8 c #729FC0",
"9 c #6EA5CD",
"0 c #71A1C5",
"q c #72A6CD",
"w c #78A7CB",
"e c #75A8CF",
"r c #7BA9CE",
"t c #70A7D1",
"y c #76A9D0",
"u c #7BACD2",
"i c #8398AC",
"p c #83A3BD",
"a c #8AA6BE",
"s c #87A8C5",
"d c #81ABCD",
"f c #8AAECB",
"g c #92B3CF",
"h c #81AFD3",
"j c #88AFD1",
"k c #85B1D5",
"l c #8BB4D6",
"z c #8EB6D8",
"x c #8FB8DA",
"c c #92B5D2",
"v c #99B7D0",
"b c #94B8D7",
"n c #9BBAD5",
"m c #90B7D9",
"M c #94BADA",
"N c #9ABEDC",
"B c #A3BCD5",
"V c #A1BFDA",
"C c #9EC0DD",
"Z c #A3C2DE",
"A c #A8C5DE",
"S c #9CC0E0",
"D c #A5C4E0",
"F c #A8C6E1",
"G c None",
/* pixels */
"GGGGGGGGGGGGGGGGGGGGGGGGGGGGGGGG",
"GGGGGGZFDDZcGGGGGGGGGGGGGGGGGGGG",
"GGGGAFZZSZNNNbGGGGGGGGGGGGGGGGGG",
"GGGAZZZZNNNNMMlGGGGGGGGGGGGGGGGG",
"GGZDZZNSSNNMMmxlGGGGGGGGGGGGGGGG",
"GGZZZNc+GGG3xlkkdGGGGGGGGGGGGGGG",
"GnNNNgGGGGGGGkkhk*GGGGGGGGGGGGGG",
"GCNNN+GGGGGGG>khhwGGGGGGGGGGGGGG",
"GNNMNGGGGGGGGGuhurGGGGGGGGGGGGGG",
"GNMxxGGGGGZDGGruuuGGGGGGGGGGGGGG",
"GmxxxGGGGZADZG0uyyGGGGGGGGGGGGGG",
"Gflkk2GGGZZNCN<qeqGGGGGGGGGGGGGG",
"GGkkkkGGGiCNNNN<q0GGGGGGGGGGGGGG",
"GGhkhhh:GG-NMxmx;&GGGGGGGGGGGGGG",
"GGGhhuhurw0<MxlxkXBDDZZNNaGGGGGG",
"GGGGuuruyyy7<lkkkkaVZZNNNNbGGGGG",
"GGGGGwuywttq7<kkhhhpnNNNbMMlGGGG",
"GGGGGG%0qq997%@uhuuupfclxbmlkGGG",
"GGGGGGGGGGGGGGvpuuuuyGGG$llkkdGG",
"GGGGGGGGGGGGGGZn5uyuywGGGGkkhkGG",
"GGGGGGGGGGGGGGNNc4yewtqGGG0khh1G",
"GGGGGGGGGGGGGGNMbsoq9t<GGGGhuuwG",
"GGGGGGGGGGGGGGMMlfG%9,GGGGGuuuuG",
"GGGGGGGGGGGGGGlxllGGGGGGGGGuyyyG",
"GGGGGGGGGGGGGGllkk=GGGGGGG8yyy0G",
"GGGGGGGGGGGGGG5lkkhGGGGGGGwyyt&G",
"GGGGGGGGGGGGGGGdkhuu4GGG8yyqqq.G",
"GGGGGGGGGGGGGGGGhuuuuuyyyw9q9<GG",
"GGGGGGGGGGGGGGGGGuuryyyqtqq97GGG",
"GGGGGGGGGGGGGGGGGGwyyytq999;GGGG",
"GGGGGGGGGGGGGGGGGGGG:0yt0% GGGGG",
"GGGGGGGGGGGGGGGGGGGGGGGGGGGGGGGG"
};
