/* XPM */
static char *boston_housing[] = {
/* columns rows colors chars-per-pixel */
"32 32 149 2",
"   c #9E1B13",
".  c #A6150F",
"X  c #A41B08",
"o  c #AA1D0F",
"O  c #A51D16",
"+  c #AB1C16",
"@  c #A51B19",
"#  c #AE1F19",
"$  c #9C390E",
"%  c #9E301C",
"&  c #A3220D",
"*  c #A8250A",
"=  c #AB2C0C",
"-  c #A9340F",
";  c #B33C09",
":  c #A52512",
">  c #AA2412",
",  c #A52B10",
"<  c #AC2912",
"1  c #A4231A",
"2  c #AF201A",
"3  c #A52B1D",
"4  c #A92A1C",
"5  c #B1241D",
"6  c #A73010",
"7  c #AE3115",
"8  c #AD3D10",
"9  c #A8311E",
"0  c #AE3B1D",
"q  c #B1321C",
"w  c #B13B1A",
"e  c #9B2822",
"r  c #AF2720",
"t  c #A42A23",
"y  c #AD2C23",
"u  c #B32721",
"i  c #B32A25",
"p  c #B62F2A",
"a  c #AA352A",
"s  c #B5322C",
"d  c #B8342E",
"f  c #A93C36",
"g  c #B73732",
"h  c #B63C35",
"j  c #BA3933",
"k  c #C53D02",
"l  c #AC420F",
"z  c #B7460E",
"x  c #BA520F",
"c  c #AE4F17",
"v  c #B14210",
"b  c #B34D10",
"n  c #B84C18",
"m  c #BC5411",
"M  c #A84528",
"N  c #AA4D33",
"B  c #AA5136",
"V  c #B95537",
"C  c #C64101",
"Z  c #CB4A01",
"A  c #CA480A",
"S  c #CE5302",
"D  c #C0560D",
"F  c #C35F0F",
"G  c #D35B00",
"H  c #C15511",
"J  c #C95313",
"K  c #C05A15",
"L  c #CE5919",
"P  c #C5620D",
"I  c #CA680F",
"U  c #D66301",
"Y  c #D66903",
"T  c #D96B01",
"R  c #D4610C",
"E  c #DC7404",
"W  c #DF7C04",
"Q  c #DE7D0B",
"!  c #C76B10",
"~  c #CD7917",
"^  c #D17814",
"/  c #DE7A12",
"(  c #DF7D1A",
")  c #E07D06",
"_  c #C26526",
"`  c #CD6523",
"'  c #C56C2C",
"]  c #D56F25",
"[  c #D46D2C",
"{  c #D87026",
"}  c #C47234",
"|  c #C27831",
" . c #B45E45",
".. c #B5524A",
"X. c #D5831C",
"o. c #E48905",
"O. c #E28409",
"+. c #E6950F",
"@. c #E08612",
"#. c #E38A10",
"$. c #E48E1B",
"%. c #E79311",
"&. c #E89816",
"*. c #E69418",
"=. c #EA9D1C",
"-. c #D28321",
";. c #DD9427",
":. c #D8942E",
">. c #DD833C",
",. c #E68F27",
"<. c #E69625",
"1. c #E99C22",
"2. c #E0982E",
"3. c #E89F31",
"4. c #EBA42C",
"5. c #ECA936",
"6. c #EAA33C",
"7. c #EDA83C",
"8. c #DD894E",
"9. c #DE8E51",
"0. c #E18D42",
"q. c #E39242",
"w. c #E39C4E",
"e. c #E39454",
"r. c #E39A56",
"t. c #EDA542",
"y. c #EEAD47",
"u. c #EDAF4A",
"i. c #EFB24C",
"p. c #E8A357",
"a. c #E8A65D",
"s. c #EDAC5B",
"d. c #F0B75D",
"f. c #D7A96E",
"g. c #DCAE76",
"h. c #E7AA62",
"j. c #EDB166",
"k. c #EBB56C",
"l. c #EEB86F",
"z. c #F1BB6C",
"x. c #EBBA74",
"c. c #E2B878",
"v. c #F1BC74",
"b. c #F0BC7B",
"n. c #F3C27D",
"m. c #E8BF81",
"M. c #F2C88B",
"N. c #F5CD92",
"B. c None",
/* pixels */
"B.B.B.B.B.B.B.B.B.B.B.B.B.B.B.B.B.B.B.B.B.B.B.B.B.B.B.B.B.B.B.B.",
"B.B.B.B.B.B.B.B.B.B.B.B.B.B.B.B.B.B.B.B.B.B.B.B.B.B.B.B.B.B.B.B.",
"B.B.B.B.B.B.B.B.B.B.B.B.B.B.B.B.B.B.B.B.B.B.B.B.B.B.B.B.B.B.B.B.",
"B.B.B.B.B.B.B.B.B.B.B.B.B.B.B.m.N.c.B.B.B.B.B.B.B.B.B.B.B.B.B.B.",
"B.B.B.B.B.B.B.B.B.B.B.B.B.B.v.N.N.N.x.B.B.B.B.B.z.M.i.B.B.B.B.B.",
"B.B.B.B.B.B.B.B.B.B.B.B.B.k.M.d.i.d.n.k.B.B.B.B.d.z.6.B.B.B.B.B.",
"B.B.B.B.B.B.B.B.B.B.B.B.k.v.y.5.5.4.7.z.l.f.B.B.7.4.=.B.B.B.B.B.",
"B.B.B.B.B.B.B.B.B.B.B.k.l.6.4.2.% :.=.1.s.b.g.B.t.&.+.B.B.B.B.B.",
"B.B.B.B.B.B.B.B.B.B.h.j.3.1.;.9 # @ -.%.*.3.s.w.<.) E B.B.B.B.B.",
"B.B.B.B.B.B.B.B.B.h.s.<.*.X.4 # 2 2 2 ~ O.W / ( E T T B.B.B.B.B.",
"B.B.B.B.B.B.B.B.s.p.$.#.X.4 5 # 2 2 2 @ P T T T T T T B.B.B.B.B.",
"B.B.B.B.B.B.B.r.w.X.O.^ 1 # # # # 2 # # + D U T U U U B.B.B.B.B.",
"B.B.B.B.B.| w.q.) ) ! > 2 2 # # 2 2 2 2 # 2 x G G G R B.B.B.B.B.",
"B.B.B.B.B.e.8.E E I 2 # 2 2 5 # 2 2 5 # 2 2 @ x G G R { B.B.B.B.",
"B.B.B.} 9.>.T E F @ 5 # 2 5 # # 5 # # # # # # + z S S [ [ B.B.B.",
"B.B.' 8.>.Y Y m + # + 5 2 # # 5 # # # 5 2 2 # 5 2 v Z S [ [ B.B.",
"B._ { { U U H # 2 2 2 2 2 2 # # # # # 5 5 # # # 2 + l Z Z L H B.",
"B.` R G S K q 2 2 2 2 2 2 2 2 5 5 # # # # 2 2 2 # 2 2 z k C A n ",
"B.B.H S b c w # 2 2 2 2 2 2 # # # 4 5 # 2 2 # 5 5 2 2 l $ k ; B.",
"B.B.B.B.B.B.w 2 2 2 2 2 2 2 4 u 5 5 5 5 2 # # # # 2 2 ; B.B.B.B.",
"B.B.B.B.B.B.7 2 2 2 2 2 5 q  .N M M B V y # # # 2 2 1 8 B.B.B.B.",
"B.B.B.B.B.B.< 2 2 2 2 2 # q B.B.B.B.B.v t # 5 + # 2 + - B.B.B.B.",
"B.B.B.B.B.B.2 # 2 2 2 2 # < B.B.B.B.B.= 4 + 5 5 5 # 2 6 B.B.B.B.",
"B.B.B.B.B.B.> # 2 2 2 2 # > B.B.B.B.B.* 1 2 2 2 5 # 2 , B.B.B.B.",
"B.B.B.B.B.B.2 2 # 5 # # # * B.B.B.B.B.* 1 # # 5 # # + : B.B.B.B.",
"B.B.B.B.B.B.O 2 # # # 5 # + B.B.B.B.B.X 1 # # # 5 # 1 : B.B.B.B.",
"B.B.B.B.B.B.: # 2 5 2 5 # q B.B.B.B.B.a 1 # 5 # # # + 3 B.B.B.B.",
"B.B.B.B.B.B.y 5 2 2 2 2 # h B.B.B.B.B...t # # # # 5 2 a B.B.B.B.",
"B.B.B.B.B.B.O 2 + @ O + + i B.B.B.B.B.f e O O + O O @   B.B.B.B.",
"B.B.B.B.B.B.+ y s g j i r + # u d p u + 5 u d j d i 5 . B.B.B.B.",
"B.B.B.B.B.B.B.B.B.B.B.B.B.B.B.B.B.B.B.B.B.B.B.B.B.B.B.B.B.B.B.B.",
"B.B.B.B.B.B.B.B.B.B.B.B.B.B.B.B.B.B.B.B.B.B.B.B.B.B.B.B.B.B.B.B."
};
