/* XPM */
static char *spambase[] = {
/* columns rows colors chars-per-pixel */
"32 32 235 2",
"   c #361200",
".  c #461D00",
"X  c #491D01",
"o  c #471A09",
"O  c #4A2200",
"+  c #45200B",
"@  c #552303",
"#  c #5C2700",
"$  c #5C2B02",
"%  c #522208",
"&  c #532B0C",
"*  c #5A330C",
"=  c #5F390C",
"-  c #642C01",
";  c #653505",
":  c #6F3200",
">  c #6D3A02",
",  c #703301",
"<  c #733C01",
"1  c #7B3B00",
"2  c #6E3F19",
"3  c #754203",
"4  c #7B4403",
"5  c #7E4C01",
"6  c #70450B",
"7  c #7D4A0F",
"8  c #7D5206",
"9  c #7E5108",
"0  c #6D4715",
"q  c #6B4914",
"w  c #7F4F11",
"e  c #7B451E",
"r  c #764D1D",
"t  c #775317",
"y  c #7E5A1C",
"u  c #6C4B2C",
"i  c #7E5E26",
"p  c #6F4C39",
"a  c #714D38",
"s  c #735032",
"d  c #7D5434",
"f  c #775B33",
"g  c #775E3C",
"h  c #715E4E",
"j  c #834706",
"k  c #824C01",
"l  c #884F02",
"z  c #834E0B",
"x  c #845405",
"c  c #8A5302",
"v  c #845804",
"b  c #8C5A04",
"n  c #83530E",
"m  c #8B570B",
"M  c #85590A",
"N  c #8B5D0A",
"B  c #915C05",
"V  c #985B02",
"C  c #955A08",
"Z  c #985F08",
"A  c #825813",
"S  c #865B19",
"D  c #935F10",
"F  c #A05E03",
"G  c #8F620F",
"H  c #9C6304",
"J  c #93620B",
"K  c #986008",
"L  c #9C6C0F",
"P  c #8E6414",
"I  c #85601F",
"U  c #936511",
"Y  c #9B6E13",
"T  c #926A1A",
"R  c #996F1D",
"E  c #9C7017",
"W  c #9C701C",
"Q  c #A26604",
"!  c #A56906",
"~  c #A96C05",
"^  c #A3660A",
"/  c #A76908",
"(  c #AA6B0B",
")  c #AB730C",
"_  c #A06D12",
"`  c #AD6E11",
"'  c #A26B1A",
"]  c #AA7314",
"[  c #A5761E",
"{  c #AA761F",
"}  c #AD7B1C",
"|  c #B17116",
" . c #B47E1D",
".. c #8B5E23",
"X. c #905626",
"o. c #965F27",
"O. c #885939",
"+. c #816125",
"@. c #8E6726",
"#. c #806129",
"$. c #996F23",
"%. c #93652D",
"&. c #93692F",
"*. c #9F7524",
"=. c #9B752A",
"-. c #876739",
";. c #836A3B",
":. c #926138",
">. c #927335",
",. c #9F7A33",
"<. c #94753E",
"1. c #9E7B3A",
"2. c #A46F24",
"3. c #A67721",
"4. c #A67C25",
"5. c #AC7C23",
"6. c #AB732F",
"7. c #A27A2C",
"8. c #A57E32",
"9. c #A17F3A",
"0. c #84674D",
"q. c #866E49",
"w. c #8C754F",
"e. c #9B7D41",
"r. c #94794F",
"t. c #8C735F",
"y. c #977E56",
"u. c #997F5B",
"i. c #A47643",
"p. c #A27952",
"a. c #A47F5B",
"s. c #8E7664",
"d. c #927C60",
"f. c #B7821D",
"g. c #A9802F",
"h. c #B3832B",
"j. c #BD892B",
"k. c #AB8333",
"l. c #A4833C",
"z. c #AA853B",
"x. c #AE8A3F",
"c. c #B28734",
"v. c #B08836",
"b. c #BB8B34",
"n. c #B2833C",
"m. c #B28A3B",
"M. c #BC8D3B",
"N. c #BC903D",
"B. c #C7953C",
"V. c #C9983F",
"C. c #9E824F",
"Z. c #9D8051",
"A. c #A18143",
"S. c #AD8642",
"D. c #AB8846",
"F. c #AB864B",
"G. c #AF8B49",
"H. c #B18C44",
"J. c #B98F44",
"K. c #B3894F",
"L. c #B59146",
"P. c #BA9244",
"I. c #B8934F",
"U. c #A68054",
"Y. c #AB8553",
"T. c #A4855D",
"R. c #A68A5D",
"E. c #AF8A5B",
"W. c #B28E54",
"Q. c #BA8D50",
"!. c #B0895D",
"~. c #B59355",
"^. c #BA9756",
"/. c #B0915F",
"(. c #BC9B5F",
"). c #95836B",
"_. c #9F8669",
"`. c #9B886C",
"'. c #A78562",
"]. c #A78C60",
"[. c #AA8B65",
"{. c #A68D6C",
"}. c #B18861",
"|. c #AD9264",
" X c #B69564",
".X c #BC9C63",
"XX c #B1936B",
"oX c #B49868",
"OX c #BD9E6A",
"+X c #A08C70",
"@X c #AE8B73",
"#X c #A59277",
"$X c #A3917B",
"%X c #AF9579",
"&X c #B69B72",
"*X c #BC9D75",
"=X c #B2947A",
"-X c #B39E7C",
";X c #BEA374",
":X c #CD9B41",
">X c #C39D54",
",X c #CDA760",
"<X c #C5A06F",
"1X c #C4A97A",
"2X c #AB9C83",
"3X c #B19B82",
"4X c #BBA180",
"5X c #B6A48C",
"6X c #BBA68E",
"7X c #BAAA92",
"8X c #C9A683",
"9X c #C0A98F",
"0X c #CBAB88",
"qX c #CDB181",
"wX c #C3AE90",
"eX c #C3B297",
"rX c #CDB294",
"tX c #C6B59B",
"yX c #D2B493",
"uX c #D2BA94",
"iX c #D3B79C",
"pX c #D3BB9D",
"aX c #DBBF9B",
"sX c #CEBCA1",
"dX c #D1BEA3",
"fX c #E0C599",
"gX c #D6C2A5",
"hX c #DAC3A4",
"jX c #DBC7AB",
"kX c #DECAAC",
"lX c #E3CBA5",
"zX c #E0CCAE",
"xX c #E2CEB0",
"cX c #E5D1B3",
"vX c None",
/* pixels */
"vXvXvXvXvXvXvXvXvXvXvXvXvXvXvXvXvXvXvXvXvXvXvXvXvXvXvXvXvXvXvXvX",
"vXvXvXvXvXvXvXvXvXvXvXvXvXvXvXvXvXvXvXvXvXvXvXvXvXvXvXvXvXvXvXvX",
"vXvXvXvXvXvXvXvXvXvXvXvXvXvXvXvXvXvXvXvXvXvXvXvXvXvXvXvXvXvXvXvX",
"vXvXvXvXvXvXvXvXvXvXvXvXvXvXvXvXvXvXvXvXvXvXvXvXvXvXvXvXvXvXvXvX",
"vXvXvXvXvXvXvXvXvXvXvXvXvXvXvXvXvXvXvX, < - vXvXvXvXvXvXvXvXvXvX",
"vXvXvXvXvXvXvXvXvXvXvXvXvXvX< k J k c K k 3 vXvXvXvXvXvXvXvXvXvX",
"vXvXvXvXvXvXvXvXvXV 4 $ < 8 x P $...-.t.%.c vXvXvXvXvXvXvXvXvXvX",
"vXvXvXvX| ] h.5.5.J E 8 q g `.wXhXzXcXcXY.M X vXvX$ vXvXvXvXvXvX",
"vXF ! ] :XN.=.,.C.Z.`.7XhXlXfXqXOXW.G.$.T P 3.Y c > $ vXvXvXvXvX",
"( C J i q.Z..X~.D.7.L.,XL.H.h.E Y W =.T T S i f s x n vXvXvXvXvX",
"( ~ $Xv.g.g.H.z.8.=.=.1.1.>.<.<.r.t.$X5XsXxXcXcXlXJ n vXvXvXvXvX",
"( f.&Xz.x.i ;.w.).2XtXgXkXcXcXcXcXcXcXcXcXcXkXhX*Xx 8 vXvXvXvXvX",
"` j.oXx.>.sX.X.X(.^.~.I.P.S.@.A G J N N [ J J G U N J M B C @ vX",
"| :X/.L.e.qX,.z.z.z.S.8.c.[ } c x x c B v 6 6 6 t y A 4.U # + vX",
"vXV..XJ.C.1X,.=.z.C.;X4X-X5X5X7X7XtXpXsXgXjXkXcXcX|.M 4 ; 1 & vX",
"vXb..X>X~.;Xl.y R W tXcXcXcXxXcXcXcXcXcXcXcXcXcX&.v 3 h '.3 * vX",
"vXh.F.P.G.1Xl.{.[.G Y  XcXxXcXcXcXcXcXcXcXcX=Xn 5 0 $XcX[.4 * vX",
"vXE G.N.D.1XH.{.cX=Xm N e hXcXcXcXcXcXcXcXO.- < u gXcXcXa.k vXvX",
"vXf.l.P.g.;X>XXXcXcX9X..4 , :.<XaXcXhX}.z < $ s.cXcXcXcXU.B vXvX",
"vXf.h.N.z.|.v.oXcXcXcXp.j 1 , , ] ^ H B 5 1 a cXcXcXcXcXK.K vXvX",
"vXm 5.M.k.|.v.|.cXcX0Xj 0.6X{.d z ' Z r +X3Xa zXcXcXcXcXF.c vXvX",
"vXvXvX} 4.Z.4.R.cXcXX.).cXcXcXcXzXsXdXcXcXxXcXcXcXcXcXcXi.k vXvX",
"vXvXvX4 J M Y ].cXcXxXcXcXcXcXcXcXcXcXcXcXcXcXcXcXcXcXcXn.Q vXvX",
"vXvXvX- > 3 G R.cXcXcXcXcXcXcXcXcXcXcXcXcXcXcXcXcXcXcXcXM.( vXvX",
"vXvXvXvX+ $ Y T.cXcXcXxXxXxXcXcXcXcXcXcXcXcXcXcXcXcXcXcXb.( vXvX",
"vXvXvXvXvXvX3 0 !.XX1XrXdXhXhXhXlXzXzXxXcXcXcXcXcXcXcXcXM.) vXvX",
"vXvXvXvXvXvXj < < b k < - 3 m U ' 3.2.o.6.n.Q.}.@X8XyXiX' c vXvX",
"vXvXvXvXvXvXvXvXvX  O X X < z B B ^ ^ / ! ~ K c 1 c Q Q Q j vXvX",
"vXvXvXvXvXvXvXvXvXvXvXvXvXvXvXvXvXvXvXvXvXvX= & o % > 3 4 @ vXvX",
"vXvXvXvXvXvXvXvXvXvXvXvXvXvXvXvXvXvXvXvXvXvXvXvXvXvXvXvXvXvXvXvX",
"vXvXvXvXvXvXvXvXvXvXvXvXvXvXvXvXvXvXvXvXvXvXvXvXvXvXvXvXvXvXvXvX",
"vXvXvXvXvXvXvXvXvXvXvXvXvXvXvXvXvXvXvXvXvXvXvXvXvXvXvXvXvXvXvXvX"
};
