/* XPM */
static char *twoDiamonds[] = {
/* columns rows colors chars-per-pixel */
"32 32 212 2",
"   c #074102",
".  c #0F4502",
"X  c #174E04",
"o  c #184D06",
"O  c #14440A",
"+  c #1A4012",
"@  c #225507",
"#  c #25540B",
"$  c #2E5E09",
"%  c #204115",
"&  c #334F16",
"*  c #305413",
"=  c #3A680B",
"-  c #46750E",
";  c #446B15",
":  c #4D681B",
">  c #477311",
",  c #527814",
"<  c #455320",
"1  c #476320",
"2  c #4E6A33",
"3  c #911F06",
"4  c #9A1D00",
"5  c #9D130D",
"6  c #9B1A0B",
"7  c #AF0F01",
"8  c #B10B00",
"9  c #AC1401",
"0  c #AE1E05",
"q  c #A11909",
"w  c #B31500",
"e  c #B41B00",
"r  c #B81F00",
"t  c #822D0D",
"y  c #9C2402",
"u  c #9B260E",
"i  c #A82700",
"p  c #B42500",
"a  c #BA2400",
"s  c #B62D06",
"d  c #BD2C00",
"f  c #AC370C",
"g  c #BF3100",
"h  c #B73308",
"j  c #C23500",
"k  c #C33A00",
"l  c #BB5107",
"z  c #A44F1C",
"x  c #AF5C1A",
"c  c #AA6A26",
"v  c #A76828",
"b  c #C54100",
"n  c #C94500",
"m  c #CC4D00",
"M  c #CF5300",
"N  c #D25B01",
"B  c #D46200",
"V  c #D86D05",
"C  c #D76809",
"Z  c #DB7301",
"A  c #DE7C00",
"S  c #D76917",
"D  c #D96F15",
"F  c #CC751D",
"G  c #DE7F13",
"H  c #DC7B1A",
"J  c #CD7127",
"K  c #D47224",
"L  c #DA7420",
"P  c #DB7B35",
"I  c #54830F",
"U  c #538210",
"Y  c #5F8F13",
"T  c #5F9013",
"R  c #7B8D18",
"E  c #679915",
"W  c #6B9C14",
"Q  c #6B9519",
"!  c #6D9C1F",
"~  c #74A416",
"^  c #7AA817",
"/  c #75A518",
"(  c #78A318",
")  c #7AA91B",
"_  c #63852B",
"`  c #658A2E",
"'  c #679524",
"]  c #6F9927",
"[  c #6B922C",
"{  c #729E25",
"}  c #729B2A",
"|  c #688F36",
" . c #698F3A",
".. c #6F9534",
"X. c #6A903B",
"o. c #729D31",
"O. c #789F37",
"+. c #70963B",
"@. c #799F3F",
"#. c #77A225",
"$. c #7AA426",
"%. c #7DAA24",
"&. c #7AA42B",
"*. c #79A532",
"=. c #5D8640",
"-. c #6B9248",
";. c #729546",
":. c #74974E",
">. c #7A9B4D",
",. c #6D8C57",
"<. c #66865F",
"1. c #719552",
"2. c #779958",
"3. c #7A9C5C",
"4. c #7EA346",
"5. c #6C9669",
"6. c #779B63",
"7. c #799B65",
"8. c #779B68",
"9. c #81AE17",
"0. c #82A71B",
"q. c #82AF19",
"w. c #89AB1C",
"e. c #87B319",
"r. c #8BB51A",
"t. c #8DB819",
"y. c #93BC1A",
"u. c #98BF1E",
"i. c #8D8B26",
"p. c #938B26",
"a. c #879F2B",
"s. c #9E8238",
"d. c #A48833",
"f. c #8AAA26",
"g. c #84A32B",
"h. c #82AD29",
"j. c #8AB427",
"k. c #8DB62B",
"l. c #90B925",
"z. c #98BE2D",
"x. c #82A93B",
"c. c #87B136",
"v. c #90B832",
"b. c #96BB3B",
"n. c #DF8002",
"m. c #E28606",
"M. c #E18608",
"N. c #E48D0E",
"B. c #E08310",
"V. c #E59113",
"C. c #E5921E",
"Z. c #E7981A",
"A. c #CD8739",
"S. c #D6803C",
"D. c #DE883D",
"F. c #DA983C",
"G. c #E38C21",
"H. c #E79921",
"J. c #E89B27",
"K. c #E5942A",
"L. c #E38D30",
"P. c #E28C3A",
"I. c #E19434",
"U. c #E79A3C",
"Y. c #E99F3B",
"T. c #EBA22F",
"R. c #EBA43C",
"E. c #99C11B",
"W. c #98C020",
"Q. c #97C128",
"!. c #9CC037",
"~. c #9DC239",
"^. c #A2C62D",
"/. c #A6C92D",
"(. c #AACB34",
"). c #A6C83B",
"_. c #AED53B",
"`. c #9B9643",
"'. c #84A84F",
"]. c #8FAB48",
"[. c #8BB341",
"{. c #98BD46",
"}. c #80A153",
"|. c #86AC50",
" X c #8CB051",
".X c #96BA54",
"XX c #D89B47",
"oX c #E08A40",
"OX c #E08A4B",
"+X c #E39343",
"@X c #E29B44",
"#X c #E59848",
"$X c #E89F50",
"%X c #EBA445",
"&X c #E8A14A",
"*X c #EBAD4F",
"=X c #EAAB54",
"-X c #EEB156",
";X c #EEB35D",
":X c #E8B566",
">X c #E6B66C",
",X c #F1BB6B",
"<X c #F1BD72",
"1X c #9FC554",
"2X c #A4C64D",
"3X c #AECD4E",
"4X c #AACD58",
"5X c #91AB87",
"6X c #9FB69A",
"7X c #F3C783",
"8X c #F7D29C",
"9X c None",
/* pixels */
"9X9X9X9X9X9X9X9X9X9X9X9X9X9X9X9X9X9X9X9X9X9X9X9X9X9X9X9X9X9X9X9X",
"9X9X9X9X9X9X9X9X9X9X7X9X9X9X9X9X9X9X9X9X9X9X9X9X9X9X9X9X9X9X9X9X",
"9X9X9X9X9X9X9X9X9X>X8X:X9X9X9X9X9X9X9X9X9X9X9X9X9X9X9X9X9X9X9X9X",
"9X9X9X9X9X9X9X9X9X<X<X,X9X9X9X9X9X9X9X9X9X9X9X9X9X9X9X9X9X9X9X9X",
"9X9X9X9X9X9X9X9X=X;X-X-X*X9X9X9X9X9X9X5.9X9X9X9X9X9X9X9X9X9X9X9X",
"9X9X9X9X9X9X9XXX;X%XT.R.=XF.9X9X9X9X9X6X<.9X9X9X9X9X9X9X9X9X9X9X",
"9X9X9X9X9X9X9X=X%XJ.Z.Z.R.%X9X9X9X9X8.5X8.9X9X9X9X9X9X9X9X9X9X9X",
"9X9X9X9X9X9X@X&XK.V.N.N.C.U.I.9X9X,.6.7.7.=.9X9X9X9X9X9X9X9X9X9X",
"9X9X9X9X9XA.$XK.N.M.M.m.n.G.@XJ 9X2.2.-.1.1.2 9X9X9X9X9X9X9X9X9X",
"9X9X9X9X9X@XL.B.A A A m.Z C D J >.3.-.| X.:.X.9X9X9X9X9X9X9X9X9X",
"9X9X9X9XOXP.B.A A Z Z B N B C s.}.>.....[ ..>.` 9X9X9X9X9X9X9X9X",
"9X9X9XD.oXH Z Z Z N N N M M x |.|.*.} } ] } 4.4._ 9X9X9X9X9X9X9X",
"9X9XP OXL V V B M M M M M l ]. Xx.&.} $.#.#.{ } ' 9X9X9X9X9X9X9X",
"9XK P L C V N m m m m m l `..Xc.h.h.h.h.$.E E ] *.{ 9X9X9X9X9X9X",
"9XS B N B m n n n n n b c 1X1Xv.k.k.j.) ~ ~ / / %.c.%.9X9X9X9X9X",
"9X9XN N n b b b b b k v 4X2X!.Q.z.l.9.q.q.q.q.q.q.k.b.g.9X9X9X9X",
"9X9X9Xb k k k k k g c 3X3X).(.Q.y.t.t.t.t.t.t.t.t.y.z.!.f.9X9X9X",
"9X9X9Xf j j j j g z _.(.(.(./.E.u.y.y.u.y.y.y.E.y.y.u.u.E.a.9X9X",
"9X9X9X9Xh j d j g i p././.^.y.y.y.y.y.y.y.y.y.t.y.y.y.y.w.9X9X9X",
"9X9X9X9X9Xs d d d p y i.Q.e.e.e.e.e.e.e.e.e.e.e.e.e.e.0.9X9X9X9X",
"9X9X9X9X9X9Xa a a a p 4 R / / / ^ ^ ^ ^ ^ ^ ^ ^ ^ ^ ( 9X9X9X9X9X",
"9X9X9X9X9X9Xu a p r r 0 y Q W W W W W W W W W W W W < 9X9X9X9X9X",
"9X9X9X9X9X9X9Xe e e e e 9 t Y E Y T T T Y Y Y Y E : 9X9X9X9X9X9X",
"9X9X9X9X9X9X9X9Xw w w w w 9X1 U , I I I I I I I , 9X9X9X9X9X9X9X",
"9X9X9X9X9X9X9X9X6 w w 8 q 9X9X; - - - - - - - > 9X9X9X9X9X9X9X9X",
"9X9X9X9X9X9X9X9X9X9 7 7 9X9X9X9X= = = = = = = & 9X9X9X9X9X9X9X9X",
"9X9X9X9X9X9X9X9X9X9X8 9X9X9X9X9X9X$ $ $ $ $ * 9X9X9X9X9X9X9X9X9X",
"9X9X9X9X9X9X9X9X9X9X5 9X9X9X9X9X9X# @ @ @ @ 9X9X9X9X9X9X9X9X9X9X",
"9X9X9X9X9X9X9X9X9X9X9X9X9X9X9X9X9X9Xo o X % 9X9X9X9X9X9X9X9X9X9X",
"9X9X9X9X9X9X9X9X9X9X9X9X9X9X9X9X9X9X+ . O 9X9X9X9X9X9X9X9X9X9X9X",
"9X9X9X9X9X9X9X9X9X9X9X9X9X9X9X9X9X9X9X  9X9X9X9X9X9X9X9X9X9X9X9X",
"9X9X9X9X9X9X9X9X9X9X9X9X9X9X9X9X9X9X9X9X9X9X9X9X9X9X9X9X9X9X9X9X"
};
