/* XPM */
static char *zoo[] = {
/* columns rows colors chars-per-pixel */
"32 32 93 2",
"   c #341406",
".  c #381707",
"X  c #3C1A07",
"o  c #341809",
"O  c #3F1A0A",
"+  c #421707",
"@  c #451807",
"#  c #4B1A06",
"$  c #401C08",
"%  c #4B1E09",
"&  c #521B05",
"*  c #5D1D06",
"=  c #581C08",
"-  c #601D06",
";  c #4D250D",
":  c #54210B",
">  c #5C240B",
",  c #5C2A0E",
"<  c #4F2A14",
"1  c #5D2D11",
"2  c #4A311E",
"3  c #5C3318",
"4  c #63250B",
"5  c #6C250A",
"6  c #65290C",
"7  c #6B2B0C",
"8  c #712307",
"9  c #74270A",
"0  c #732C0C",
"q  c #7B2C0B",
"w  c #6F300F",
"e  c #7D320E",
"r  c #632D10",
"t  c #782E10",
"y  c #6C3412",
"u  c #6E361D",
"i  c #6C3B1A",
"p  c #733312",
"a  c #7C3612",
"s  c #743915",
"d  c #7D3A14",
"f  c #753C19",
"g  c #7C3D19",
"h  c #793E22",
"j  c #7F421B",
"k  c #822D0B",
"l  c #83330D",
"z  c #8C350D",
"x  c #83390F",
"c  c #93370E",
"v  c #94390E",
"b  c #863712",
"n  c #8B3611",
"m  c #843B14",
"M  c #8C3D14",
"N  c #803F19",
"B  c #933C12",
"V  c #9A3E12",
"C  c #854016",
"Z  c #8C4216",
"A  c #83431B",
"S  c #8C431A",
"D  c #8E4C1F",
"F  c #934316",
"G  c #9B4415",
"H  c #9E4917",
"J  c #934519",
"K  c #94491B",
"L  c #9C4B1B",
"P  c #9C501E",
"I  c #A34614",
"U  c #A64718",
"Y  c #A34D1A",
"T  c #A4521E",
"R  c #AA521C",
"E  c #975225",
"W  c #995121",
"Q  c #8E4E31",
"!  c #8D5737",
"~  c #A24E20",
"^  c #A65422",
"/  c #A45922",
"(  c #AE5C24",
")  c #9B623D",
"_  c #B8632C",
"`  c #B26434",
"'  c #9C6443",
"]  c #B2724A",
"[  c #B47D5D",
"{  c #C37B50",
"}  c #BB916D",
"|  c #BF9779",
" . c None",
/* pixels */
" . . . . . . . . . . . . . . . . . . . . . . . . . . . . . . . .",
" . . . . . . . . . . . . . . . . . . . . . . . . . . . . . . . .",
" . . . . . . . . . . . . . . . . . . . . . . . . . . . . . . . .",
" . . . . . . . . . . . . . . . . . . . . . . . . . . . . . . . .",
" . . . . . . . . . . . . . . . . . . . . . . . . . . . . . . . .",
" . . . . . . . . . . . . . . . . . . . . . . . . . . . . . . . .",
" . . . . . . . .}  . . . . . .[ { U v v ^ ) |  . . . . . . . . .",
" . . . . .' ] T G ( L ^ ` _ V c U V I V V F G Y D  . . . . . . .",
" . . . .Q q F L L T G G G R V I V V B B B L T Y L g  . . . . . .",
" . . .u 0 0 F L a ( F B B Y V V c B n z c G R S J S  . . . . . .",
" . .h * 5 e m H M K Z q V a V b t c 9 V e b L p G m ,  . . . . .",
" . .p 5 5 l Z L n M F M B Y c z q c 5 c k S Y Z / Z 7  . . . . .",
" .r 5 0 0 e F L F S M B G 9 c c k n k n k Z G Z / Z x  . . . . .",
" .> 7 w a e x L B F b b G 8 z z k k k k l M G Z P Z M  . . . . .",
" .6 7 7 a e x J n F a q B z l l k 9 t q k d S M T K m %  . . . .",
" .g m m t x M G J F a 9 z B l e t 8 t 8 :  . .< T P x C 7  . . .",
" .E J K a l Z M q Z p 0 z F e q 9 5 0 =  . . . . .W M p 2  . . .",
" .f K b m x Z b m m 0 5 e K x 9 5 4 4 >  . . . . .W A d 3 i  . .",
" .y K m d x C d N m 7 ; X  .p 7 * 4 = O  . . . . .A A d  . . . .",
" .y y M a x j C D N o  . . . .7 - 4 >  . . . . . .f A y  . . . .",
" .r  .m p e o S S j 1  . . . .5 = 4    . . . . . .f m y  . . . .",
" .r  .d e e ; 1 m g y  . . . .7 * ,  . . . . . . . .a 1  . . . .",
" .4  .p 0 e ;  .g A p  . . .! & = 4  . . . . . . . .a :  . . . .",
" .   .r 0 7 ;  .s g s  . . .6 # + *  . . . . . . . .7 p  . . . .",
" . . .% a * $  .1 w s  . . . .& # :  . . . . . . . ., 0 7  . . .",
" . . .+ > >  . . . . . . . . .# @ : O  . . . . . . . ..  . . . .",
" . . . . . . . . . . . . . . . . . . . . . . . . . . . . . . . .",
" . . . . . . . . . . . . . . . . . . . . . . . . . . . . . . . .",
" . . . . . . . . . . . . . . . . . . . . . . . . . . . . . . . .",
" . . . . . . . . . . . . . . . . . . . . . . . . . . . . . . . .",
" . . . . . . . . . . . . . . . . . . . . . . . . . . . . . . . .",
" . . . . . . . . . . . . . . . . . . . . . . . . . . . . . . . ."
};
